<svg width="10" height="6" viewBox="0 0 10 6" fill="none" xmlns="http://www.w3.org/2000/svg">
<path d="M5.00033 5.47884C4.88921 5.47884 4.78171 5.45801 4.67782 5.41634C4.57338 5.37467 4.48644 5.31912 4.41699 5.24967L0.583659 1.41634C0.430881 1.26356 0.354492 1.06912 0.354492 0.833007C0.354492 0.596896 0.430881 0.402452 0.583659 0.249674C0.736436 0.0968964 0.930881 0.0205078 1.16699 0.0205078C1.4031 0.0205078 1.59755 0.0968964 1.75033 0.249674L5.00033 3.49967L8.25032 0.249674C8.4031 0.0968964 8.59755 0.0205078 8.83366 0.0205078C9.06977 0.0205078 9.26421 0.0968964 9.41699 0.249674C9.56977 0.402452 9.64616 0.596896 9.64616 0.833007C9.64616 1.06912 9.56977 1.26356 9.41699 1.41634L5.58366 5.24967C5.50033 5.33301 5.41005 5.3919 5.31283 5.42634C5.2156 5.46134 5.11144 5.47884 5.00033 5.47884Z" fill="#EEF0F4"/>
</svg>
